<svg version="1.1" xmlns="http://www.w3.org/2000/svg" xmlns:xlink="http://www.w3.org/1999/xlink" width="16.98145" height="16.9815" viewBox="0,0,16.98145,16.9815"><defs><radialGradient cx="240" cy="180" r="8.49075" gradientUnits="userSpaceOnUse" id="color-1"><stop offset="0" stop-color="#ffc7c7"/><stop offset="1" stop-color="#ffc7c7" stop-opacity="0"/></radialGradient><radialGradient cx="240.0456" cy="179.9607" r="5.91932" gradientUnits="userSpaceOnUse" id="color-2"><stop offset="0" stop-color="#ffc7c7"/><stop offset="1" stop-color="#ffc7c7" stop-opacity="0"/></radialGradient><radialGradient cx="240" cy="180" r="2.66932" gradientUnits="userSpaceOnUse" id="color-3"><stop offset="0" stop-color="#ffffff"/><stop offset="1" stop-color="#ffffff" stop-opacity="0"/></radialGradient></defs><g transform="translate(-231.50927,-171.50925)"><g stroke="none" stroke-miterlimit="10"><path d="M234.02476,185.9709c-3.28047,-3.28047 -3.42668,-8.46094 0,-11.88763c3.42668,-3.42668 8.45024,-3.43739 11.88763,0c3.43739,3.43739 3.4382,8.44943 0,11.88763c-3.4382,3.4382 -8.60715,3.28047 -11.88763,0z" fill="url(#color-1)" stroke-width="NaN"/><path d="M235.87996,184.12331c-2.28698,-2.28698 -2.38891,-5.89855 0,-8.28746c2.38891,-2.38891 5.89108,-2.39637 8.28746,0c2.39637,2.39637 2.39693,5.89052 0,8.28746c-2.39693,2.39693 -6.00047,2.28698 -8.28746,0z" fill="url(#color-2)" stroke-width="NaN"/><path d="M238.1215,181.87713c-1.03132,-1.03132 -1.07728,-2.65995 0,-3.73723c1.07728,-1.07728 2.65659,-1.08065 3.73723,0c1.08065,1.08065 1.0809,2.65633 0,3.73723c-1.0809,1.0809 -2.70592,1.03132 -3.73723,0z" fill="url(#color-3)" stroke-width="NaN"/></g></g></svg>